<svg width="111" height="24" viewBox="0 0 111 24" fill="none" xmlns="http://www.w3.org/2000/svg">
<g clip-path="url(#clip0_1_2)">
<path d="M29.6612 17.4863C27.9914 17.4863 26.6328 16.1328 26.6328 14.4691C26.6328 12.8055 27.9914 11.452 29.6612 11.452C31.3311 11.452 32.6896 12.8055 32.6896 14.4691C32.6896 16.1328 31.3311 17.4863 29.6612 17.4863ZM29.6612 4.93823C24.3686 4.93823 20.0949 9.22432 20.0949 14.4691C20.0949 19.7422 24.3686 24 29.6612 24C34.9538 24 39.2275 19.7422 39.2275 14.4691C39.2275 9.22432 34.9538 4.93823 29.6612 4.93823Z" fill="#EA515A"/>
<path d="M54.9638 5.92514L51.1996 8.09638C50.5769 8.46296 49.7844 8.46296 49.1618 8.09638L45.3692 5.92514C43.7277 4.99461 41.6616 5.53037 40.6993 7.16585C39.7653 8.80133 40.303 10.8598 41.9446 11.8185L45.7088 13.9898C46.3315 14.3563 46.7277 15.0331 46.7277 15.7662V20.0241C46.7277 21.857 48.1712 23.4361 50.0108 23.4925C51.9637 23.5489 53.5487 22.0262 53.5487 20.1087V15.738C53.5487 15.0049 53.9449 14.3281 54.5676 13.9616L58.3035 11.8467C59.9168 10.9162 60.5394 8.91412 59.6904 7.27864C58.7564 5.55857 56.6337 4.96641 54.9638 5.92514Z" fill="#EA515A"/>
<path d="M70.6718 17.4863C69.002 17.4863 67.6434 16.1328 67.6434 14.4691C67.6434 12.8055 69.002 11.452 70.6718 11.452C72.3417 11.452 73.7002 12.8055 73.7002 14.4691C73.7002 16.1328 72.3417 17.4863 70.6718 17.4863ZM70.6718 4.93823C65.3792 4.93823 61.1055 9.19612 61.1055 14.4691C61.1055 19.7422 65.3792 24 70.6718 24C75.9644 24 80.2381 19.7422 80.2381 14.4691C80.2381 9.22432 75.9361 4.93823 70.6718 4.93823Z" fill="#EA515A"/>
<path d="M70.6718 2.85154C71.3794 2.85154 72.087 2.90794 72.7662 3.02073C73.6436 3.16172 74.2096 2.17479 73.6719 1.49804C72.9926 0.623904 71.9737 0.0599455 70.8133 0.00354962C69.5114 -0.0528463 68.3227 0.567508 67.5868 1.52624C67.0774 2.20299 67.6717 3.16172 68.5208 3.02073C69.2284 2.90794 69.9359 2.85154 70.6718 2.85154Z" fill="#EA515A"/>
<path d="M24.2837 6.63013C24.2554 6.60193 24.2271 6.60193 24.1988 6.57373C24.2554 6.60193 24.2837 6.63013 24.2837 6.63013C24.312 6.63013 24.312 6.65832 24.2837 6.63013Z" fill="#EA515A"/>
<path d="M15.8495 17.6836C15.5382 17.2607 15.1702 16.9505 14.7457 16.6967L14.2646 16.4993C13.3872 16.1892 12.3683 16.2737 11.5192 16.7813C11.3777 16.8941 11.2362 16.9787 11.0947 17.0915C10.6418 17.3453 10.1324 17.5145 9.56631 17.5145C7.89645 17.5145 6.53792 16.161 6.53792 14.4973C6.53792 12.8336 7.89645 11.4801 9.56631 11.4801C10.1324 11.4801 10.6418 11.6211 11.0947 11.9031C11.2362 11.9877 11.3777 12.1005 11.5192 12.2132C12.3683 12.7208 13.3872 12.8054 14.2646 12.4952L14.7457 12.2978C15.1702 12.0723 15.5665 11.7339 15.8495 11.3109C16.8967 9.84461 16.5571 7.84256 15.1136 6.77104C15.0853 6.74284 15.057 6.71464 15.0287 6.71464C13.4721 5.64312 11.6041 4.99457 9.56631 4.99457C4.27371 4.93817 0 9.22426 0 14.4691C0 19.7421 4.27371 24 9.56631 24C11.6041 24 13.4721 23.3796 15.0287 22.2799C15.057 22.2517 15.0853 22.2517 15.1136 22.2235C16.5571 21.1802 16.8967 19.1499 15.8495 17.6836Z" fill="#EA515A"/>
<path d="M26.6611 14.4691C26.6611 12.8055 28.0197 11.452 29.6895 11.452C31.3594 11.452 32.7179 12.8055 32.7179 14.4691C32.7179 16.1328 31.3594 17.4863 29.6895 17.4863C28.0197 17.4863 26.6611 16.1328 26.6611 14.4691ZM39.2558 14.4691C39.2558 9.19612 34.9821 4.93823 29.6895 4.93823C24.3969 4.93823 20.1232 9.19612 20.1232 14.4691C20.1232 19.7422 24.3969 24 29.6895 24C34.9821 24 39.2558 19.7422 39.2558 14.4691Z" fill="#EA515A"/>
<path d="M37.5577 9.13965C37.586 9.11145 37.586 9.08325 37.6143 9.05505C37.586 9.08325 37.5577 9.11145 37.5577 9.13965Z" fill="#EA515A"/>
</g>
<g clip-path="url(#clip1_1_2)">
<path d="M90.056 12.304C90.7173 12.304 91.232 12.4987 91.6 12.888C91.968 13.272 92.152 13.8293 92.152 14.56V18H90.856V14.6C90.856 14.2053 90.752 13.9093 90.544 13.712C90.3413 13.5093 90.072 13.408 89.736 13.408C89.368 13.408 89.0747 13.5147 88.856 13.728C88.6373 13.936 88.528 14.2533 88.528 14.68V18H87.232V14.6C87.232 14.2053 87.136 13.9093 86.944 13.712C86.752 13.5093 86.4907 13.408 86.16 13.408C85.7973 13.408 85.5067 13.5147 85.288 13.728C85.0693 13.936 84.96 14.2533 84.96 14.68V18H83.664V12.4H84.92V13.088C85.0907 12.8373 85.3173 12.6453 85.6 12.512C85.8827 12.3733 86.208 12.304 86.576 12.304C86.96 12.304 87.296 12.376 87.584 12.52C87.872 12.6587 88.0933 12.8613 88.248 13.128C88.44 12.8613 88.6907 12.6587 89 12.52C89.3147 12.376 89.6667 12.304 90.056 12.304ZM95.9496 12.304C96.467 12.304 96.9176 12.4053 97.3016 12.608C97.6856 12.8107 97.9843 13.1093 98.1976 13.504C98.411 13.8987 98.5176 14.376 98.5176 14.936V18H97.2216V16.656H94.6616V18H93.3816V14.936C93.3816 14.376 93.4883 13.8987 93.7016 13.504C93.915 13.1093 94.2136 12.8107 94.5976 12.608C94.9816 12.4053 95.4323 12.304 95.9496 12.304ZM97.2216 15.616V14.816C97.2216 14.352 97.107 14.0027 96.8776 13.768C96.6483 13.528 96.3363 13.408 95.9416 13.408C95.5416 13.408 95.227 13.528 94.9976 13.768C94.7736 14.0027 94.6616 14.352 94.6616 14.816V15.616H97.2216ZM103.365 18L102.285 16.44H102.221H101.093V18H99.7968V12.4H102.221C102.717 12.4 103.146 12.4827 103.509 12.648C103.877 12.8133 104.16 13.048 104.357 13.352C104.554 13.656 104.653 14.016 104.653 14.432C104.653 14.848 104.552 15.208 104.349 15.512C104.152 15.8107 103.869 16.04 103.501 16.2L104.757 18H103.365ZM103.341 14.432C103.341 14.1173 103.24 13.8773 103.037 13.712C102.834 13.5413 102.538 13.456 102.149 13.456H101.093V15.408H102.149C102.538 15.408 102.834 15.3227 103.037 15.152C103.24 14.9813 103.341 14.7413 103.341 14.432ZM109.76 13.968C109.28 13.6907 108.765 13.512 108.216 13.432V18H106.92V13.432C106.37 13.512 105.853 13.6907 105.368 13.968L104.928 13C105.312 12.7707 105.728 12.5973 106.176 12.48C106.624 12.3627 107.085 12.304 107.56 12.304C108.04 12.304 108.504 12.3627 108.952 12.48C109.405 12.5973 109.821 12.7707 110.2 13L109.76 13.968Z" fill="white"/>
</g>
<defs>
<clipPath id="clip0_1_2">
<rect width="81" height="24" fill="white"/>
</clipPath>
<clipPath id="clip1_1_2">
<rect width="28" height="6" fill="white" transform="translate(83 12)"/>
</clipPath>
</defs>
</svg>
